<svg width="1440" height="104" viewBox="0 0 1440 104" fill="none" xmlns="http://www.w3.org/2000/svg">
<path d="M143.529 46.2118C143.529 50.8819 140.762 54.9082 136.779 56.7351C138.461 55.3496 139.532 53.248 139.532 50.896C139.532 46.7642 136.226 43.4042 132.112 43.3205C132.057 43.3167 132.008 43.3167 131.953 43.3167C131.898 43.3167 131.848 43.3167 131.794 43.3205C130.267 43.4033 129.059 44.6663 129.059 46.2108V60.6814C129.059 65.4748 125.17 69.3638 120.376 69.3638V46.2118C120.376 39.8193 125.56 34.6353 131.953 34.6353C138.345 34.6353 143.529 39.8193 143.529 46.2118Z" fill="black"/>
<path d="M133.999 48.2582C135.129 47.128 135.129 45.2956 133.999 44.1654C132.869 43.0351 131.037 43.0351 129.906 44.1654C128.776 45.2956 128.776 47.128 129.906 48.2582C131.037 49.3884 132.869 49.3884 133.999 48.2582Z" fill="black"/>
<path d="M168.426 54.82V51.98H171.046C171.552 51.98 171.986 51.88 172.346 51.68C172.719 51.48 173.006 51.2 173.206 50.84C173.406 50.4667 173.506 50.04 173.506 49.56C173.506 49.0533 173.406 48.62 173.206 48.26C173.006 47.8867 172.719 47.6067 172.346 47.42C171.986 47.22 171.552 47.12 171.046 47.12H168.426V44.28H170.886C172.126 44.28 173.186 44.4867 174.066 44.9C174.959 45.3133 175.639 45.9 176.106 46.66C176.586 47.42 176.826 48.3333 176.826 49.4V49.72C176.826 50.76 176.586 51.6667 176.106 52.44C175.639 53.2 174.959 53.7867 174.066 54.2C173.186 54.6133 172.126 54.82 170.886 54.82H168.426ZM165.546 59V44.28H168.826V59H165.546ZM183.189 59.38C182.256 59.38 181.429 59.22 180.709 58.9C180.002 58.58 179.409 58.1533 178.929 57.62C178.462 57.0733 178.102 56.4667 177.849 55.8C177.609 55.12 177.489 54.4267 177.489 53.72V53.32C177.489 52.5867 177.609 51.8867 177.849 51.22C178.102 50.54 178.462 49.9333 178.929 49.4C179.396 48.8667 179.976 48.4467 180.669 48.14C181.376 47.82 182.176 47.66 183.069 47.66C184.242 47.66 185.229 47.9267 186.029 48.46C186.842 48.98 187.462 49.6667 187.889 50.52C188.316 51.36 188.529 52.28 188.529 53.28V54.36H178.829V52.54H186.589L185.549 53.38C185.549 52.7267 185.456 52.1667 185.269 51.7C185.082 51.2333 184.802 50.88 184.429 50.64C184.069 50.3867 183.616 50.26 183.069 50.26C182.509 50.26 182.036 50.3867 181.649 50.64C181.262 50.8933 180.969 51.2667 180.769 51.76C180.569 52.24 180.469 52.8333 180.469 53.54C180.469 54.1933 180.562 54.7667 180.749 55.26C180.936 55.74 181.229 56.1133 181.629 56.38C182.029 56.6467 182.549 56.78 183.189 56.78C183.776 56.78 184.256 56.6667 184.629 56.44C185.002 56.2133 185.256 55.9333 185.389 55.6H188.329C188.169 56.3333 187.856 56.9867 187.389 57.56C186.922 58.1333 186.336 58.58 185.629 58.9C184.922 59.22 184.109 59.38 183.189 59.38ZM190.249 59V48.04H192.789V52.74H192.729C192.729 51.1933 193.056 50 193.709 49.16C194.376 48.32 195.336 47.9 196.589 47.9H197.009V50.66H196.209C195.329 50.66 194.649 50.9 194.169 51.38C193.689 51.8467 193.449 52.5267 193.449 53.42V59H190.249ZM202.427 59.34C200.867 59.34 199.647 59.02 198.767 58.38C197.887 57.74 197.421 56.84 197.367 55.68H200.207C200.261 56.0267 200.467 56.34 200.827 56.62C201.201 56.8867 201.754 57.02 202.487 57.02C203.047 57.02 203.507 56.9267 203.867 56.74C204.241 56.54 204.427 56.26 204.427 55.9C204.427 55.58 204.287 55.3267 204.007 55.14C203.727 54.94 203.227 54.8 202.507 54.72L201.647 54.64C200.327 54.5067 199.334 54.14 198.667 53.54C198.014 52.94 197.687 52.1733 197.687 51.24C197.687 50.4667 197.881 49.82 198.267 49.3C198.654 48.78 199.187 48.3867 199.867 48.12C200.561 47.8533 201.347 47.72 202.227 47.72C203.641 47.72 204.781 48.0333 205.647 48.66C206.514 49.2733 206.967 50.1667 207.007 51.34H204.167C204.114 50.98 203.927 50.68 203.607 50.44C203.287 50.1867 202.814 50.06 202.187 50.06C201.694 50.06 201.301 50.1533 201.007 50.34C200.714 50.5267 200.567 50.78 200.567 51.1C200.567 51.4067 200.694 51.64 200.947 51.8C201.201 51.96 201.614 52.0733 202.187 52.14L203.047 52.22C204.394 52.3667 205.441 52.74 206.187 53.34C206.934 53.94 207.307 54.7467 207.307 55.76C207.307 56.4933 207.107 57.1333 206.707 57.68C206.307 58.2133 205.741 58.6267 205.007 58.92C204.274 59.2 203.414 59.34 202.427 59.34ZM214.321 59.38C213.361 59.38 212.507 59.2333 211.761 58.94C211.014 58.6333 210.381 58.22 209.861 57.7C209.354 57.18 208.967 56.5867 208.701 55.92C208.434 55.24 208.301 54.5267 208.301 53.78V53.32C208.301 52.56 208.434 51.84 208.701 51.16C208.981 50.4667 209.381 49.86 209.901 49.34C210.434 48.82 211.074 48.4133 211.821 48.12C212.567 47.8133 213.401 47.66 214.321 47.66C215.267 47.66 216.107 47.8133 216.841 48.12C217.587 48.4133 218.221 48.82 218.741 49.34C219.261 49.86 219.661 50.4667 219.941 51.16C220.221 51.84 220.361 52.56 220.361 53.32V53.78C220.361 54.5267 220.227 55.24 219.961 55.92C219.694 56.5867 219.301 57.18 218.781 57.7C218.274 58.22 217.647 58.6333 216.901 58.94C216.154 59.2333 215.294 59.38 214.321 59.38ZM214.321 56.68C214.947 56.68 215.467 56.5467 215.881 56.28C216.294 56.0133 216.607 55.64 216.821 55.16C217.047 54.68 217.161 54.1467 217.161 53.56C217.161 52.9333 217.047 52.3867 216.821 51.92C216.594 51.44 216.267 51.06 215.841 50.78C215.427 50.5 214.921 50.36 214.321 50.36C213.734 50.36 213.227 50.5 212.801 50.78C212.374 51.06 212.047 51.44 211.821 51.92C211.607 52.3867 211.501 52.9333 211.501 53.56C211.501 54.1467 211.607 54.68 211.821 55.16C212.034 55.64 212.354 56.0133 212.781 56.28C213.207 56.5467 213.721 56.68 214.321 56.68ZM222.194 59V48.04H224.734V52.74H224.554C224.554 51.62 224.694 50.6867 224.974 49.94C225.267 49.1933 225.707 48.6333 226.294 48.26C226.881 47.8867 227.594 47.7 228.434 47.7H228.574C229.854 47.7 230.827 48.12 231.494 48.96C232.174 49.7867 232.514 51.0467 232.514 52.74V59H229.314V52.56C229.314 51.9733 229.141 51.4933 228.794 51.12C228.447 50.7467 227.981 50.56 227.394 50.56C226.794 50.56 226.307 50.7533 225.934 51.14C225.574 51.5133 225.394 52.0067 225.394 52.62V59H222.194ZM241.461 59V55.76H240.921V52.24C240.921 51.68 240.787 51.26 240.521 50.98C240.254 50.7 239.827 50.56 239.241 50.56C238.947 50.56 238.561 50.5667 238.081 50.58C237.601 50.5933 237.107 50.6133 236.601 50.64C236.094 50.6667 235.634 50.6933 235.221 50.72V48.02C235.527 47.9933 235.887 47.9667 236.301 47.94C236.714 47.9133 237.141 47.8933 237.581 47.88C238.021 47.8667 238.434 47.86 238.821 47.86C239.941 47.86 240.881 48.02 241.641 48.34C242.414 48.66 243.001 49.1467 243.401 49.8C243.801 50.44 244.001 51.2667 244.001 52.28V59H241.461ZM237.961 59.28C237.174 59.28 236.481 59.14 235.881 58.86C235.294 58.58 234.834 58.18 234.501 57.66C234.167 57.1267 234.001 56.4933 234.001 55.76C234.001 54.96 234.207 54.3067 234.621 53.8C235.034 53.28 235.614 52.9 236.361 52.66C237.107 52.4067 237.967 52.28 238.941 52.28H241.281V54.06H238.921C238.361 54.06 237.927 54.2 237.621 54.48C237.327 54.7467 237.181 55.1133 237.181 55.58C237.181 56.02 237.327 56.38 237.621 56.66C237.927 56.9267 238.361 57.06 238.921 57.06C239.281 57.06 239.601 57 239.881 56.88C240.174 56.7467 240.414 56.5267 240.601 56.22C240.787 55.9133 240.894 55.4867 240.921 54.94L241.681 55.74C241.614 56.5 241.427 57.14 241.121 57.66C240.827 58.18 240.414 58.58 239.881 58.86C239.361 59.14 238.721 59.28 237.961 59.28ZM246.456 59V44.4H249.676V59H246.456ZM245.156 46.76V44.4H249.676V46.76H245.156Z" fill="black"/>
<path d="M495.313 59L500.293 44.4H504.933L510.053 59H507.133L502.793 46.34L503.813 46.78H501.313L502.353 46.34L498.153 59H495.313ZM498.793 55.12L499.693 52.72H505.613L506.493 55.12H498.793ZM517.982 59.36C517.088 59.36 516.302 59.1733 515.622 58.8C514.942 58.4133 514.408 57.8533 514.022 57.12C513.635 56.3867 513.422 55.5 513.382 54.46H513.802V59H511.602V44.4H514.382V51.7L513.642 52.84C513.695 51.72 513.915 50.7867 514.302 50.04C514.702 49.2933 515.235 48.7333 515.902 48.36C516.568 47.9867 517.322 47.8 518.162 47.8C518.908 47.8 519.588 47.94 520.202 48.22C520.815 48.5 521.342 48.8933 521.782 49.4C522.222 49.8933 522.555 50.4733 522.782 51.14C523.022 51.8067 523.142 52.5333 523.142 53.32V53.74C523.142 54.5267 523.022 55.26 522.782 55.94C522.542 56.62 522.195 57.22 521.742 57.74C521.288 58.2467 520.742 58.6467 520.102 58.94C519.475 59.22 518.768 59.36 517.982 59.36ZM517.362 57.02C517.962 57.02 518.482 56.8733 518.922 56.58C519.375 56.2733 519.728 55.86 519.982 55.34C520.235 54.82 520.362 54.22 520.362 53.54C520.362 52.8467 520.235 52.2467 519.982 51.74C519.728 51.2333 519.375 50.84 518.922 50.56C518.482 50.28 517.962 50.14 517.362 50.14C516.815 50.14 516.308 50.26 515.842 50.5C515.388 50.74 515.015 51.0933 514.722 51.56C514.442 52.0267 514.302 52.5867 514.302 53.24V54.04C514.302 54.6667 514.448 55.2 514.742 55.64C515.035 56.08 515.415 56.42 515.882 56.66C516.348 56.9 516.842 57.02 517.362 57.02ZM530.406 59.38C529.446 59.38 528.599 59.2267 527.866 58.92C527.133 58.6133 526.513 58.2 526.006 57.68C525.499 57.1467 525.113 56.5467 524.846 55.88C524.593 55.2133 524.466 54.52 524.466 53.8V53.38C524.466 52.6333 524.599 51.9267 524.866 51.26C525.146 50.58 525.539 49.98 526.046 49.46C526.566 48.9267 527.193 48.5133 527.926 48.22C528.659 47.9133 529.486 47.76 530.406 47.76C531.326 47.76 532.153 47.9133 532.886 48.22C533.619 48.5133 534.239 48.9267 534.746 49.46C535.266 49.98 535.659 50.58 535.926 51.26C536.193 51.9267 536.326 52.6333 536.326 53.38V53.8C536.326 54.52 536.193 55.2133 535.926 55.88C535.673 56.5467 535.293 57.1467 534.786 57.68C534.279 58.2 533.659 58.6133 532.926 58.92C532.193 59.2267 531.353 59.38 530.406 59.38ZM530.406 57C531.086 57 531.659 56.8533 532.126 56.56C532.593 56.2533 532.946 55.8467 533.186 55.34C533.426 54.82 533.546 54.2333 533.546 53.58C533.546 52.9133 533.419 52.3267 533.166 51.82C532.926 51.3 532.566 50.8933 532.086 50.6C531.619 50.2933 531.059 50.14 530.406 50.14C529.753 50.14 529.186 50.2933 528.706 50.6C528.239 50.8933 527.879 51.3 527.626 51.82C527.373 52.3267 527.246 52.9133 527.246 53.58C527.246 54.2333 527.366 54.82 527.606 55.34C527.859 55.8467 528.219 56.2533 528.686 56.56C529.153 56.8533 529.726 57 530.406 57ZM542.06 59.34C540.807 59.34 539.834 58.9267 539.14 58.1C538.46 57.2733 538.12 56.0467 538.12 54.42V48.12H540.9V54.66C540.9 55.3267 541.087 55.86 541.46 56.26C541.834 56.6467 542.34 56.84 542.98 56.84C543.62 56.84 544.14 56.6333 544.54 56.22C544.954 55.8067 545.16 55.2467 545.16 54.54V48.12H547.94V59H545.74V54.38H545.96C545.96 55.4733 545.82 56.3867 545.54 57.12C545.26 57.8533 544.84 58.4067 544.28 58.78C543.72 59.1533 543.02 59.34 542.18 59.34H542.06ZM555.454 59.14C554.454 59.14 553.627 59.0133 552.974 58.76C552.334 58.4933 551.854 58.0533 551.534 57.44C551.214 56.8133 551.054 55.9733 551.054 54.92L551.074 45.08H553.674L553.654 55.1C553.654 55.6333 553.794 56.0467 554.074 56.34C554.367 56.62 554.78 56.76 555.314 56.76H557.014V59.14H555.454ZM549.334 50.18V48.14H557.014V50.18H549.334ZM563.083 59V44.4H566.963L570.623 53.12H570.983L574.623 44.4H578.563V59H575.743V46.54L576.103 46.58L572.163 56.02H569.263L565.303 46.58L565.683 46.54V59H563.083ZM586.405 59.38C585.472 59.38 584.652 59.22 583.945 58.9C583.252 58.58 582.672 58.1533 582.205 57.62C581.752 57.0733 581.405 56.4667 581.165 55.8C580.939 55.1333 580.825 54.4533 580.825 53.76V53.38C580.825 52.66 580.939 51.9667 581.165 51.3C581.405 50.62 581.752 50.02 582.205 49.5C582.672 48.9667 583.245 48.5467 583.925 48.24C584.605 47.92 585.392 47.76 586.285 47.76C587.459 47.76 588.439 48.02 589.225 48.54C590.025 49.0467 590.625 49.72 591.025 50.56C591.425 51.3867 591.625 52.28 591.625 53.24V54.24H582.005V52.54H589.885L589.025 53.38C589.025 52.6867 588.925 52.0933 588.725 51.6C588.525 51.1067 588.219 50.7267 587.805 50.46C587.405 50.1933 586.899 50.06 586.285 50.06C585.672 50.06 585.152 50.2 584.725 50.48C584.299 50.76 583.972 51.1667 583.745 51.7C583.532 52.22 583.425 52.8467 583.425 53.58C583.425 54.26 583.532 54.8667 583.745 55.4C583.959 55.92 584.285 56.3333 584.725 56.64C585.165 56.9333 585.725 57.08 586.405 57.08C587.085 57.08 587.639 56.9467 588.065 56.68C588.492 56.4 588.765 56.06 588.885 55.66H591.445C591.285 56.4067 590.979 57.06 590.525 57.62C590.072 58.18 589.492 58.6133 588.785 58.92C588.092 59.2267 587.299 59.38 586.405 59.38Z" fill="black"/>
<path d="M631.733 59.38C630.44 59.38 629.346 59.1733 628.453 58.76C627.573 58.3467 626.9 57.78 626.433 57.06C625.966 56.3267 625.733 55.5 625.733 54.58H628.513C628.513 54.9667 628.62 55.3467 628.833 55.72C629.046 56.08 629.386 56.3733 629.853 56.6C630.333 56.8267 630.96 56.94 631.733 56.94C632.426 56.94 633.006 56.84 633.473 56.64C633.94 56.44 634.286 56.18 634.513 55.86C634.74 55.5267 634.853 55.1533 634.853 54.74C634.853 54.22 634.633 53.8067 634.193 53.5C633.753 53.18 633.073 52.98 632.153 52.9L630.873 52.8C629.473 52.68 628.353 52.2467 627.513 51.5C626.686 50.74 626.273 49.74 626.273 48.5C626.273 47.5667 626.493 46.7667 626.933 46.1C627.373 45.42 627.986 44.9 628.773 44.54C629.573 44.1667 630.506 43.98 631.573 43.98C632.68 43.98 633.633 44.1733 634.433 44.56C635.233 44.9467 635.853 45.4933 636.293 46.2C636.733 46.8933 636.953 47.7133 636.953 48.66H634.173C634.173 48.26 634.073 47.8933 633.873 47.56C633.686 47.2133 633.4 46.94 633.013 46.74C632.64 46.5267 632.16 46.42 631.573 46.42C631.013 46.42 630.546 46.5133 630.173 46.7C629.8 46.8867 629.52 47.14 629.333 47.46C629.146 47.78 629.053 48.1267 629.053 48.5C629.053 48.9533 629.22 49.3533 629.553 49.7C629.886 50.0333 630.413 50.2267 631.133 50.28L632.413 50.4C633.453 50.48 634.366 50.7 635.153 51.06C635.94 51.42 636.546 51.9067 636.973 52.52C637.413 53.1333 637.633 53.8733 637.633 54.74C637.633 55.66 637.393 56.4733 636.913 57.18C636.433 57.8733 635.746 58.4133 634.853 58.8C633.973 59.1867 632.933 59.38 631.733 59.38ZM647.209 59L643.569 53.92H641.949L646.569 48.14H649.469L645.209 53.48L645.269 52.08L650.349 59H647.209ZM639.609 59V44.4H642.389V59H639.609ZM652.073 59V48.14H654.853V59H652.073ZM650.553 50.22V48.14H654.853V50.22H650.553ZM653.093 46.84C652.547 46.84 652.14 46.7 651.873 46.42C651.62 46.1267 651.493 45.7667 651.493 45.34C651.493 44.8867 651.62 44.52 651.873 44.24C652.14 43.96 652.547 43.82 653.093 43.82C653.64 43.82 654.04 43.96 654.293 44.24C654.547 44.52 654.673 44.8867 654.673 45.34C654.673 45.7667 654.547 46.1267 654.293 46.42C654.04 46.7 653.64 46.84 653.093 46.84ZM657.797 59V44.4H660.577V59H657.797ZM656.437 46.48V44.4H660.577V46.48H656.437ZM663.491 59V44.4H666.271V59H663.491ZM662.131 46.48V44.4H666.271V46.48H662.131ZM672.985 59.34C671.491 59.34 670.318 59.0267 669.465 58.4C668.625 57.76 668.185 56.88 668.145 55.76H670.645C670.685 56.1333 670.891 56.4733 671.265 56.78C671.638 57.0867 672.225 57.24 673.025 57.24C673.691 57.24 674.218 57.12 674.605 56.88C675.005 56.64 675.205 56.3133 675.205 55.9C675.205 55.54 675.051 55.2533 674.745 55.04C674.451 54.8267 673.945 54.6867 673.225 54.62L672.265 54.52C671.051 54.3867 670.118 54.04 669.465 53.48C668.811 52.92 668.485 52.1733 668.485 51.24C668.485 50.4933 668.671 49.8667 669.045 49.36C669.418 48.8533 669.931 48.4733 670.585 48.22C671.251 47.9533 672.011 47.82 672.865 47.82C674.198 47.82 675.278 48.1133 676.105 48.7C676.931 49.2867 677.365 50.1467 677.405 51.28H674.905C674.878 50.9067 674.691 50.5867 674.345 50.32C673.998 50.0533 673.498 49.92 672.845 49.92C672.258 49.92 671.805 50.0333 671.485 50.26C671.165 50.4867 671.005 50.78 671.005 51.14C671.005 51.4867 671.131 51.7533 671.385 51.94C671.651 52.1267 672.078 52.2533 672.665 52.32L673.625 52.42C674.905 52.5533 675.905 52.9067 676.625 53.48C677.358 54.0533 677.725 54.8267 677.725 55.8C677.725 56.52 677.525 57.1467 677.125 57.68C676.738 58.2 676.191 58.6067 675.485 58.9C674.778 59.1933 673.945 59.34 672.985 59.34Z" fill="black"/>
<path d="M715.193 54.52V52.06H718.033C718.606 52.06 719.086 51.9467 719.473 51.72C719.873 51.4933 720.173 51.18 720.373 50.78C720.586 50.38 720.693 49.92 720.693 49.4C720.693 48.88 720.586 48.42 720.373 48.02C720.173 47.62 719.873 47.3133 719.473 47.1C719.086 46.8733 718.606 46.76 718.033 46.76H715.193V44.3H717.793C719.02 44.3 720.06 44.5 720.913 44.9C721.78 45.3 722.44 45.8733 722.893 46.62C723.346 47.3533 723.573 48.2267 723.573 49.24V49.56C723.573 50.5733 723.346 51.4533 722.893 52.2C722.44 52.9333 721.78 53.5067 720.913 53.92C720.06 54.32 719.02 54.52 717.793 54.52H715.193ZM712.753 59V44.3H715.593V59H712.753ZM725.375 59V48.14H727.575V52.74H727.515C727.515 51.18 727.848 50 728.515 49.2C729.182 48.4 730.162 48 731.455 48H731.855V50.42H731.095C730.162 50.42 729.435 50.6733 728.915 51.18C728.408 51.6733 728.155 52.3933 728.155 53.34V59H725.375ZM738.457 59.38C737.497 59.38 736.65 59.2267 735.917 58.92C735.183 58.6133 734.563 58.2 734.057 57.68C733.55 57.1467 733.163 56.5467 732.897 55.88C732.643 55.2133 732.517 54.52 732.517 53.8V53.38C732.517 52.6333 732.65 51.9267 732.917 51.26C733.197 50.58 733.59 49.98 734.097 49.46C734.617 48.9267 735.243 48.5133 735.977 48.22C736.71 47.9133 737.537 47.76 738.457 47.76C739.377 47.76 740.203 47.9133 740.937 48.22C741.67 48.5133 742.29 48.9267 742.797 49.46C743.317 49.98 743.71 50.58 743.977 51.26C744.243 51.9267 744.377 52.6333 744.377 53.38V53.8C744.377 54.52 744.243 55.2133 743.977 55.88C743.723 56.5467 743.343 57.1467 742.837 57.68C742.33 58.2 741.71 58.6133 740.977 58.92C740.243 59.2267 739.403 59.38 738.457 59.38ZM738.457 57C739.137 57 739.71 56.8533 740.177 56.56C740.643 56.2533 740.997 55.8467 741.237 55.34C741.477 54.82 741.597 54.2333 741.597 53.58C741.597 52.9133 741.47 52.3267 741.217 51.82C740.977 51.3 740.617 50.8933 740.137 50.6C739.67 50.2933 739.11 50.14 738.457 50.14C737.803 50.14 737.237 50.2933 736.757 50.6C736.29 50.8933 735.93 51.3 735.677 51.82C735.423 52.3267 735.297 52.9133 735.297 53.58C735.297 54.2333 735.417 54.82 735.657 55.34C735.91 55.8467 736.27 56.2533 736.737 56.56C737.203 56.8533 737.777 57 738.457 57ZM744.871 63.1V60.72H745.711C746.204 60.72 746.584 60.5867 746.851 60.32C747.118 60.0533 747.251 59.6733 747.251 59.18V48.14H749.931V59.02C749.931 60.02 749.778 60.8133 749.471 61.4C749.164 62 748.691 62.4333 748.051 62.7C747.411 62.9667 746.571 63.1 745.531 63.1H744.871ZM745.671 50.22V48.14H749.931V50.22H745.671ZM748.151 46.76C747.618 46.76 747.218 46.62 746.951 46.34C746.698 46.0467 746.571 45.68 746.571 45.24C746.571 44.8 746.698 44.44 746.951 44.16C747.218 43.88 747.618 43.74 748.151 43.74C748.698 43.74 749.098 43.88 749.351 44.16C749.618 44.44 749.751 44.8 749.751 45.24C749.751 45.68 749.618 46.0467 749.351 46.34C749.098 46.62 748.698 46.76 748.151 46.76ZM757.512 59.38C756.578 59.38 755.758 59.22 755.052 58.9C754.358 58.58 753.778 58.1533 753.312 57.62C752.858 57.0733 752.512 56.4667 752.272 55.8C752.045 55.1333 751.932 54.4533 751.932 53.76V53.38C751.932 52.66 752.045 51.9667 752.272 51.3C752.512 50.62 752.858 50.02 753.312 49.5C753.778 48.9667 754.352 48.5467 755.032 48.24C755.712 47.92 756.498 47.76 757.392 47.76C758.565 47.76 759.545 48.02 760.332 48.54C761.132 49.0467 761.732 49.72 762.132 50.56C762.532 51.3867 762.732 52.28 762.732 53.24V54.24H753.112V52.54H760.992L760.132 53.38C760.132 52.6867 760.032 52.0933 759.832 51.6C759.632 51.1067 759.325 50.7267 758.912 50.46C758.512 50.1933 758.005 50.06 757.392 50.06C756.778 50.06 756.258 50.2 755.832 50.48C755.405 50.76 755.078 51.1667 754.852 51.7C754.638 52.22 754.532 52.8467 754.532 53.58C754.532 54.26 754.638 54.8667 754.852 55.4C755.065 55.92 755.392 56.3333 755.832 56.64C756.272 56.9333 756.832 57.08 757.512 57.08C758.192 57.08 758.745 56.9467 759.172 56.68C759.598 56.4 759.872 56.06 759.992 55.66H762.552C762.392 56.4067 762.085 57.06 761.632 57.62C761.178 58.18 760.598 58.6133 759.892 58.92C759.198 59.2267 758.405 59.38 757.512 59.38ZM769.474 59.38C768.527 59.38 767.707 59.22 767.014 58.9C766.334 58.58 765.761 58.1533 765.294 57.62C764.841 57.0867 764.501 56.4867 764.274 55.82C764.047 55.1533 763.934 54.4733 763.934 53.78V53.4C763.934 52.6667 764.047 51.9667 764.274 51.3C764.514 50.62 764.867 50.02 765.334 49.5C765.801 48.9667 766.374 48.5467 767.054 48.24C767.747 47.92 768.547 47.76 769.454 47.76C770.401 47.76 771.247 47.9467 771.994 48.32C772.741 48.68 773.334 49.1867 773.774 49.84C774.227 50.4933 774.481 51.2533 774.534 52.12H771.834C771.767 51.56 771.527 51.0933 771.114 50.72C770.714 50.3467 770.161 50.16 769.454 50.16C768.841 50.16 768.327 50.3067 767.914 50.6C767.514 50.8933 767.214 51.3 767.014 51.82C766.814 52.3267 766.714 52.9133 766.714 53.58C766.714 54.22 766.807 54.8 766.994 55.32C767.194 55.84 767.494 56.2467 767.894 56.54C768.307 56.8333 768.834 56.98 769.474 56.98C769.954 56.98 770.367 56.8933 770.714 56.72C771.061 56.5467 771.334 56.3067 771.534 56C771.747 55.6933 771.881 55.3467 771.934 54.96H774.634C774.581 55.84 774.321 56.6133 773.854 57.28C773.401 57.9333 772.794 58.4467 772.034 58.82C771.287 59.1933 770.434 59.38 769.474 59.38ZM781.181 59.14C780.181 59.14 779.354 59.0133 778.701 58.76C778.061 58.4933 777.581 58.0533 777.261 57.44C776.941 56.8133 776.781 55.9733 776.781 54.92L776.801 45.08H779.401L779.381 55.1C779.381 55.6333 779.521 56.0467 779.801 56.34C780.094 56.62 780.508 56.76 781.041 56.76H782.741V59.14H781.181ZM775.061 50.18V48.14H782.741V50.18H775.061Z" fill="black"/>
<path d="M824.333 59.38C823.013 59.38 821.88 59.1467 820.933 58.68C819.986 58.2133 819.213 57.6067 818.613 56.86C818.026 56.1133 817.593 55.3 817.313 54.42C817.033 53.54 816.893 52.6933 816.893 51.88V51.44C816.893 50.5333 817.033 49.64 817.313 48.76C817.606 47.88 818.053 47.08 818.653 46.36C819.253 45.64 820.013 45.0667 820.933 44.64C821.866 44.2 822.966 43.98 824.233 43.98C825.553 43.98 826.7 44.22 827.673 44.7C828.66 45.1667 829.446 45.8333 830.033 46.7C830.62 47.5533 830.973 48.5533 831.093 49.7H828.233C828.126 49.0333 827.886 48.4733 827.513 48.02C827.153 47.5533 826.693 47.2067 826.133 46.98C825.573 46.74 824.94 46.62 824.233 46.62C823.513 46.62 822.873 46.7467 822.313 47C821.753 47.24 821.286 47.5867 820.913 48.04C820.54 48.4933 820.253 49.0267 820.053 49.64C819.866 50.2533 819.773 50.9333 819.773 51.68C819.773 52.4 819.866 53.0667 820.053 53.68C820.253 54.2933 820.546 54.8333 820.933 55.3C821.32 55.7533 821.793 56.1067 822.353 56.36C822.926 56.6133 823.586 56.74 824.333 56.74C825.426 56.74 826.346 56.4733 827.093 55.94C827.853 55.3933 828.313 54.6333 828.473 53.66H831.333C831.2 54.7 830.846 55.6533 830.273 56.52C829.7 57.3867 828.913 58.08 827.913 58.6C826.913 59.12 825.72 59.38 824.333 59.38ZM838.329 59.38C837.369 59.38 836.523 59.2267 835.789 58.92C835.056 58.6133 834.436 58.2 833.929 57.68C833.423 57.1467 833.036 56.5467 832.769 55.88C832.516 55.2133 832.389 54.52 832.389 53.8V53.38C832.389 52.6333 832.523 51.9267 832.789 51.26C833.069 50.58 833.463 49.98 833.969 49.46C834.489 48.9267 835.116 48.5133 835.849 48.22C836.583 47.9133 837.409 47.76 838.329 47.76C839.249 47.76 840.076 47.9133 840.809 48.22C841.543 48.5133 842.163 48.9267 842.669 49.46C843.189 49.98 843.583 50.58 843.849 51.26C844.116 51.9267 844.249 52.6333 844.249 53.38V53.8C844.249 54.52 844.116 55.2133 843.849 55.88C843.596 56.5467 843.216 57.1467 842.709 57.68C842.203 58.2 841.583 58.6133 840.849 58.92C840.116 59.2267 839.276 59.38 838.329 59.38ZM838.329 57C839.009 57 839.583 56.8533 840.049 56.56C840.516 56.2533 840.869 55.8467 841.109 55.34C841.349 54.82 841.469 54.2333 841.469 53.58C841.469 52.9133 841.343 52.3267 841.089 51.82C840.849 51.3 840.489 50.8933 840.009 50.6C839.543 50.2933 838.983 50.14 838.329 50.14C837.676 50.14 837.109 50.2933 836.629 50.6C836.163 50.8933 835.803 51.3 835.549 51.82C835.296 52.3267 835.169 52.9133 835.169 53.58C835.169 54.2333 835.289 54.82 835.529 55.34C835.783 55.8467 836.143 56.2533 836.609 56.56C837.076 56.8533 837.649 57 838.329 57ZM846.284 59V48.14H848.484V52.8H848.284C848.284 51.6933 848.43 50.7733 848.724 50.04C849.017 49.2933 849.45 48.7333 850.024 48.36C850.61 47.9867 851.337 47.8 852.204 47.8H852.324C853.617 47.8 854.597 48.22 855.264 49.06C855.93 49.8867 856.264 51.1267 856.264 52.78V59H853.484V52.54C853.484 51.8733 853.29 51.3333 852.904 50.92C852.53 50.5067 852.01 50.3 851.344 50.3C850.664 50.3 850.11 50.5133 849.684 50.94C849.27 51.3533 849.064 51.9133 849.064 52.62V59H846.284ZM863.572 59.14C862.572 59.14 861.746 59.0133 861.092 58.76C860.452 58.4933 859.972 58.0533 859.652 57.44C859.332 56.8133 859.172 55.9733 859.172 54.92L859.192 45.08H861.792L861.772 55.1C861.772 55.6333 861.912 56.0467 862.192 56.34C862.486 56.62 862.899 56.76 863.432 56.76H865.132V59.14H863.572ZM857.452 50.18V48.14H865.132V50.18H857.452ZM873.607 59V55.78H873.147V52.2C873.147 51.5733 872.993 51.1067 872.687 50.8C872.38 50.4933 871.907 50.34 871.267 50.34C870.933 50.34 870.533 50.3467 870.067 50.36C869.6 50.3733 869.127 50.3933 868.647 50.42C868.18 50.4333 867.76 50.4533 867.387 50.48V48.12C867.693 48.0933 868.04 48.0667 868.427 48.04C868.813 48.0133 869.207 48 869.607 48C870.02 47.9867 870.407 47.98 870.767 47.98C871.887 47.98 872.813 48.1267 873.547 48.42C874.293 48.7133 874.853 49.1733 875.227 49.8C875.613 50.4267 875.807 51.2467 875.807 52.26V59H873.607ZM870.107 59.28C869.32 59.28 868.627 59.14 868.027 58.86C867.44 58.58 866.98 58.18 866.647 57.66C866.327 57.14 866.167 56.5133 866.167 55.78C866.167 54.98 866.36 54.3267 866.747 53.82C867.147 53.3133 867.7 52.9333 868.407 52.68C869.127 52.4267 869.967 52.3 870.927 52.3H873.447V53.96H870.887C870.247 53.96 869.753 54.12 869.407 54.44C869.073 54.7467 868.907 55.1467 868.907 55.64C868.907 56.1333 869.073 56.5333 869.407 56.84C869.753 57.1467 870.247 57.3 870.887 57.3C871.273 57.3 871.627 57.2333 871.947 57.1C872.28 56.9533 872.553 56.7133 872.767 56.38C872.993 56.0333 873.12 55.5667 873.147 54.98L873.827 55.76C873.76 56.52 873.573 57.16 873.267 57.68C872.973 58.2 872.56 58.6 872.027 58.88C871.507 59.1467 870.867 59.28 870.107 59.28ZM883.204 59.38C882.258 59.38 881.438 59.22 880.744 58.9C880.064 58.58 879.491 58.1533 879.024 57.62C878.571 57.0867 878.231 56.4867 878.004 55.82C877.778 55.1533 877.664 54.4733 877.664 53.78V53.4C877.664 52.6667 877.778 51.9667 878.004 51.3C878.244 50.62 878.598 50.02 879.064 49.5C879.531 48.9667 880.104 48.5467 880.784 48.24C881.478 47.92 882.278 47.76 883.184 47.76C884.131 47.76 884.978 47.9467 885.724 48.32C886.471 48.68 887.064 49.1867 887.504 49.84C887.958 50.4933 888.211 51.2533 888.264 52.12H885.564C885.498 51.56 885.258 51.0933 884.844 50.72C884.444 50.3467 883.891 50.16 883.184 50.16C882.571 50.16 882.058 50.3067 881.644 50.6C881.244 50.8933 880.944 51.3 880.744 51.82C880.544 52.3267 880.444 52.9133 880.444 53.58C880.444 54.22 880.538 54.8 880.724 55.32C880.924 55.84 881.224 56.2467 881.624 56.54C882.038 56.8333 882.564 56.98 883.204 56.98C883.684 56.98 884.098 56.8933 884.444 56.72C884.791 56.5467 885.064 56.3067 885.264 56C885.478 55.6933 885.611 55.3467 885.664 54.96H888.364C888.311 55.84 888.051 56.6133 887.584 57.28C887.131 57.9333 886.524 58.4467 885.764 58.82C885.018 59.1933 884.164 59.38 883.204 59.38ZM894.911 59.14C893.911 59.14 893.085 59.0133 892.431 58.76C891.791 58.4933 891.311 58.0533 890.991 57.44C890.671 56.8133 890.511 55.9733 890.511 54.92L890.531 45.08H893.131L893.111 55.1C893.111 55.6333 893.251 56.0467 893.531 56.34C893.825 56.62 894.238 56.76 894.771 56.76H896.471V59.14H894.911ZM888.791 50.18V48.14H896.471V50.18H888.791ZM902.541 59V44.4H906.421L910.081 53.12H910.441L914.081 44.4H918.021V59H915.201V46.54L915.561 46.58L911.621 56.02H908.721L904.761 46.58L905.141 46.54V59H902.541ZM925.863 59.38C924.93 59.38 924.11 59.22 923.403 58.9C922.71 58.58 922.13 58.1533 921.663 57.62C921.21 57.0733 920.863 56.4667 920.623 55.8C920.397 55.1333 920.283 54.4533 920.283 53.76V53.38C920.283 52.66 920.397 51.9667 920.623 51.3C920.863 50.62 921.21 50.02 921.663 49.5C922.13 48.9667 922.703 48.5467 923.383 48.24C924.063 47.92 924.85 47.76 925.743 47.76C926.917 47.76 927.897 48.02 928.683 48.54C929.483 49.0467 930.083 49.72 930.483 50.56C930.883 51.3867 931.083 52.28 931.083 53.24V54.24H921.463V52.54H929.343L928.483 53.38C928.483 52.6867 928.383 52.0933 928.183 51.6C927.983 51.1067 927.677 50.7267 927.263 50.46C926.863 50.1933 926.357 50.06 925.743 50.06C925.13 50.06 924.61 50.2 924.183 50.48C923.757 50.76 923.43 51.1667 923.203 51.7C922.99 52.22 922.883 52.8467 922.883 53.58C922.883 54.26 922.99 54.8667 923.203 55.4C923.417 55.92 923.743 56.3333 924.183 56.64C924.623 56.9333 925.183 57.08 925.863 57.08C926.543 57.08 927.097 56.9467 927.523 56.68C927.95 56.4 928.223 56.06 928.343 55.66H930.903C930.743 56.4067 930.437 57.06 929.983 57.62C929.53 58.18 928.95 58.6133 928.243 58.92C927.55 59.2267 926.757 59.38 925.863 59.38Z" fill="black"/>
<rect x="1175" y="24" width="153" height="56" rx="4" fill="black"/>
<path d="M1196.8 59V44.3H1199.64V59H1196.8ZM1205.72 59L1201.24 52.64H1204.42L1209.04 59H1205.72ZM1198.8 54.12V51.82H1202.52C1203.04 51.82 1203.49 51.7133 1203.86 51.5C1204.25 51.2867 1204.55 50.9867 1204.76 50.6C1204.97 50.2133 1205.08 49.7733 1205.08 49.28C1205.08 48.7733 1204.97 48.3267 1204.76 47.94C1204.55 47.5533 1204.25 47.2533 1203.86 47.04C1203.49 46.8267 1203.04 46.72 1202.52 46.72H1198.8V44.3H1202.22C1203.39 44.3 1204.41 44.4733 1205.26 44.82C1206.13 45.1667 1206.79 45.6933 1207.26 46.4C1207.73 47.1067 1207.96 47.9933 1207.96 49.06V49.38C1207.96 50.46 1207.72 51.3467 1207.24 52.04C1206.77 52.7333 1206.11 53.2533 1205.26 53.6C1204.41 53.9467 1203.39 54.12 1202.22 54.12H1198.8ZM1216.04 59.38C1215.11 59.38 1214.29 59.22 1213.58 58.9C1212.89 58.58 1212.31 58.1533 1211.84 57.62C1211.39 57.0733 1211.04 56.4667 1210.8 55.8C1210.57 55.1333 1210.46 54.4533 1210.46 53.76V53.38C1210.46 52.66 1210.57 51.9667 1210.8 51.3C1211.04 50.62 1211.39 50.02 1211.84 49.5C1212.31 48.9667 1212.88 48.5467 1213.56 48.24C1214.24 47.92 1215.03 47.76 1215.92 47.76C1217.09 47.76 1218.07 48.02 1218.86 48.54C1219.66 49.0467 1220.26 49.72 1220.66 50.56C1221.06 51.3867 1221.26 52.28 1221.26 53.24V54.24H1211.64V52.54H1219.52L1218.66 53.38C1218.66 52.6867 1218.56 52.0933 1218.36 51.6C1218.16 51.1067 1217.85 50.7267 1217.44 50.46C1217.04 50.1933 1216.53 50.06 1215.92 50.06C1215.31 50.06 1214.79 50.2 1214.36 50.48C1213.93 50.76 1213.61 51.1667 1213.38 51.7C1213.17 52.22 1213.06 52.8467 1213.06 53.58C1213.06 54.26 1213.17 54.8667 1213.38 55.4C1213.59 55.92 1213.92 56.3333 1214.36 56.64C1214.8 56.9333 1215.36 57.08 1216.04 57.08C1216.72 57.08 1217.27 56.9467 1217.7 56.68C1218.13 56.4 1218.4 56.06 1218.52 55.66H1221.08C1220.92 56.4067 1220.61 57.06 1220.16 57.62C1219.71 58.18 1219.13 58.6133 1218.42 58.92C1217.73 59.2267 1216.93 59.38 1216.04 59.38ZM1227.92 59.34C1226.43 59.34 1225.25 59.0267 1224.4 58.4C1223.56 57.76 1223.12 56.88 1223.08 55.76H1225.58C1225.62 56.1333 1225.83 56.4733 1226.2 56.78C1226.57 57.0867 1227.16 57.24 1227.96 57.24C1228.63 57.24 1229.15 57.12 1229.54 56.88C1229.94 56.64 1230.14 56.3133 1230.14 55.9C1230.14 55.54 1229.99 55.2533 1229.68 55.04C1229.39 54.8267 1228.88 54.6867 1228.16 54.62L1227.2 54.52C1225.99 54.3867 1225.05 54.04 1224.4 53.48C1223.75 52.92 1223.42 52.1733 1223.42 51.24C1223.42 50.4933 1223.61 49.8667 1223.98 49.36C1224.35 48.8533 1224.87 48.4733 1225.52 48.22C1226.19 47.9533 1226.95 47.82 1227.8 47.82C1229.13 47.82 1230.21 48.1133 1231.04 48.7C1231.87 49.2867 1232.3 50.1467 1232.34 51.28H1229.84C1229.81 50.9067 1229.63 50.5867 1229.28 50.32C1228.93 50.0533 1228.43 49.92 1227.78 49.92C1227.19 49.92 1226.74 50.0333 1226.42 50.26C1226.1 50.4867 1225.94 50.78 1225.94 51.14C1225.94 51.4867 1226.07 51.7533 1226.32 51.94C1226.59 52.1267 1227.01 52.2533 1227.6 52.32L1228.56 52.42C1229.84 52.5533 1230.84 52.9067 1231.56 53.48C1232.29 54.0533 1232.66 54.8267 1232.66 55.8C1232.66 56.52 1232.46 57.1467 1232.06 57.68C1231.67 58.2 1231.13 58.6067 1230.42 58.9C1229.71 59.1933 1228.88 59.34 1227.92 59.34ZM1239.06 59.34C1237.8 59.34 1236.83 58.9267 1236.14 58.1C1235.46 57.2733 1235.12 56.0467 1235.12 54.42V48.12H1237.9V54.66C1237.9 55.3267 1238.08 55.86 1238.46 56.26C1238.83 56.6467 1239.34 56.84 1239.98 56.84C1240.62 56.84 1241.14 56.6333 1241.54 56.22C1241.95 55.8067 1242.16 55.2467 1242.16 54.54V48.12H1244.94V59H1242.74V54.38H1242.96C1242.96 55.4733 1242.82 56.3867 1242.54 57.12C1242.26 57.8533 1241.84 58.4067 1241.28 58.78C1240.72 59.1533 1240.02 59.34 1239.18 59.34H1239.06ZM1248.53 59V48.14H1250.73V52.8H1250.53C1250.53 51.7067 1250.67 50.7933 1250.95 50.06C1251.23 49.3133 1251.64 48.7533 1252.19 48.38C1252.75 47.9933 1253.44 47.8 1254.27 47.8H1254.39C1255.23 47.8 1255.92 47.9933 1256.47 48.38C1257.03 48.7533 1257.44 49.3133 1257.71 50.06C1257.99 50.7933 1258.13 51.7067 1258.13 52.8H1257.43C1257.43 51.7067 1257.57 50.7933 1257.85 50.06C1258.14 49.3133 1258.56 48.7533 1259.11 48.38C1259.67 47.9933 1260.36 47.8 1261.19 47.8H1261.31C1262.15 47.8 1262.85 47.9933 1263.41 48.38C1263.97 48.7533 1264.39 49.3133 1264.67 50.06C1264.96 50.7933 1265.11 51.7067 1265.11 52.8V59H1262.33V52.54C1262.33 51.86 1262.16 51.32 1261.81 50.92C1261.46 50.5067 1260.97 50.3 1260.33 50.3C1259.69 50.3 1259.18 50.5133 1258.79 50.94C1258.4 51.3533 1258.21 51.9133 1258.21 52.62V59H1255.43V52.54C1255.43 51.86 1255.26 51.32 1254.91 50.92C1254.56 50.5067 1254.07 50.3 1253.43 50.3C1252.79 50.3 1252.28 50.5133 1251.89 50.94C1251.5 51.3533 1251.31 51.9133 1251.31 52.62V59H1248.53ZM1273.34 59.38C1272.41 59.38 1271.59 59.22 1270.88 58.9C1270.19 58.58 1269.61 58.1533 1269.14 57.62C1268.69 57.0733 1268.34 56.4667 1268.1 55.8C1267.88 55.1333 1267.76 54.4533 1267.76 53.76V53.38C1267.76 52.66 1267.88 51.9667 1268.1 51.3C1268.34 50.62 1268.69 50.02 1269.14 49.5C1269.61 48.9667 1270.18 48.5467 1270.86 48.24C1271.54 47.92 1272.33 47.76 1273.22 47.76C1274.4 47.76 1275.38 48.02 1276.16 48.54C1276.96 49.0467 1277.56 49.72 1277.96 50.56C1278.36 51.3867 1278.56 52.28 1278.56 53.24V54.24H1268.94V52.54H1276.82L1275.96 53.38C1275.96 52.6867 1275.86 52.0933 1275.66 51.6C1275.46 51.1067 1275.16 50.7267 1274.74 50.46C1274.34 50.1933 1273.84 50.06 1273.22 50.06C1272.61 50.06 1272.09 50.2 1271.66 50.48C1271.24 50.76 1270.91 51.1667 1270.68 51.7C1270.47 52.22 1270.36 52.8467 1270.36 53.58C1270.36 54.26 1270.47 54.8667 1270.68 55.4C1270.9 55.92 1271.22 56.3333 1271.66 56.64C1272.1 56.9333 1272.66 57.08 1273.34 57.08C1274.02 57.08 1274.58 56.9467 1275 56.68C1275.43 56.4 1275.7 56.06 1275.82 55.66H1278.38C1278.22 56.4067 1277.92 57.06 1277.46 57.62C1277.01 58.18 1276.43 58.6133 1275.72 58.92C1275.03 59.2267 1274.24 59.38 1273.34 59.38Z" fill="white"/>
<path d="M1305.5 54.5V55.5C1305.5 56.9001 1305.5 57.6002 1305.23 58.135C1304.99 58.6054 1304.61 58.9878 1304.13 59.2275C1303.6 59.5 1302.9 59.5 1301.5 59.5H1294.5C1293.1 59.5 1292.4 59.5 1291.87 59.2275C1291.39 58.9878 1291.01 58.6054 1290.77 58.135C1290.5 57.6002 1290.5 56.9001 1290.5 55.5V54.5M1302.17 50.3333L1298 54.5M1298 54.5L1293.83 50.3333M1298 54.5V44.5" stroke="white" stroke-width="2" stroke-linecap="round" stroke-linejoin="round"/>
</svg>
